{
  "source": "C:\\Users\\Peter\\Desktop\\stuff\\MIUN\\quantitative_research\\video_compression\\videos\\BVI-HD\\RockWater_1920x1080_30fps.mp4",
  "output": "C:\\Users\\Peter\\Desktop\\stuff\\MIUN\\quantitative_research\\video_compression\\compressed_videos\\BVI-HD\\h264\\3\\RockWater_1920x1080_30fps_h264.mp4",
  "codec": "h264",
  "ok": "Input #0, mov,mp4,m4a,3gp,3g2,mj2, from 'C:\\Users\\Peter\\Desktop\\stuff\\MIUN\\quantitative_research\\video_compression\\videos\\BVI-HD\\RockWater_1920x1080_30fps.mp4':\n  Metadata:\n    major_brand     : isom\n    minor_version   : 512\n    compatible_brands: isomiso2avc1mp41\n    encoder         : Lavf54.28.101\n  Duration: 00:00:05.00, start: 0.000000, bitrate: 245943 kb/s\n  Stream #0:0[0x1](und): Video: h264 (High 4:4:4 Predictive) (avc1 / 0x31637661), yuv420p(progressive), 1920x1080, 245940 kb/s, 30 fps, 30 tbr, 30 tbn (default)\n    Metadata:\n      handler_name    : VideoHandler\n      vendor_id       : [0][0][0][0]\n[out#0/mp4 @ 000001daa1f81440] Codec AVOption b:a (set bitrate (in bits/s)) has not been used for any stream. The most likely reason is either wrong type (e.g. a video option with no video streams) or that it is a private option of some decoder which was not actually used for any stream.\nStream mapping:\n  Stream #0:0 -> #0:0 (h264 (native) -> h264 (libx264))\nPress [q] to stop, [?] for help\n[libx264 @ 000001daa28347c0] using cpu capabilities: MMX2 SSE2Fast SSSE3 SSE4.2 AVX FMA3 BMI2 AVX2\n[libx264 @ 000001daa28347c0] profile High, level 5.0, 4:2:0, 8-bit\n[libx264 @ 000001daa28347c0] 264 - core 165 r3222 b35605a - H.264/MPEG-4 AVC codec - Copyleft 2003-2025 - http://www.videolan.org/x264.html - options: cabac=1 ref=5 deblock=1:0:0 analyse=0x3:0x113 me=hex subme=8 psy=1 psy_rd=1.00:0.00 mixed_ref=1 me_range=16 chroma_me=1 trellis=2 8x8dct=1 cqm=0 deadzone=21,11 fast_pskip=1 chroma_qp_offset=-2 threads=18 lookahead_threads=3 sliced_threads=0 nr=0 decimate=1 interlaced=0 bluray_compat=0 constrained_intra=0 bframes=3 b_pyramid=2 b_adapt=1 b_bias=0 direct=3 weightb=1 open_gop=0 weightp=2 keyint=250 keyint_min=25 scenecut=40 intra_refresh=0 rc_lookahead=50 rc=cbr mbtree=1 bitrate=3000 ratetol=1.0 qcomp=0.60 qpmin=0 qpmax=69 qpstep=4 vbv_maxrate=3000 vbv_bufsize=3000 nal_hrd=none filler=0 ip_ratio=1.40 aq=1:1.00\nOutput #0, mp4, to 'C:\\Users\\Peter\\Desktop\\stuff\\MIUN\\quantitative_research\\video_compression\\compressed_videos\\BVI-HD\\h264\\3\\RockWater_1920x1080_30fps_h264.mp4':\n  Metadata:\n    major_brand     : isom\n    minor_version   : 512\n    compatible_brands: isomiso2avc1mp41\n    encoder         : Lavf62.3.100\n  Stream #0:0(und): Video: h264 (avc1 / 0x31637661), yuv420p(tv, progressive), 1920x1080, q=2-31, 3000 kb/s, 30 fps, 15360 tbn (default)\n    Metadata:\n      encoder         : Lavc62.11.100 libx264\n      handler_name    : VideoHandler\n      vendor_id       : [0][0][0][0]\n    Side data:\n      cpb: bitrate max/min/avg: 3000000/0/3000000 buffer size: 3000000 vbv_delay: N/A\nframe=    0 fps=0.0 q=0.0 size=       0KiB time=N/A bitrate=N/A speed=N/A elapsed=0:00:00.50    \nframe=    0 fps=0.0 q=0.0 size=       0KiB time=N/A bitrate=N/A speed=N/A elapsed=0:00:01.02    \nframe=    0 fps=0.0 q=0.0 size=       0KiB time=N/A bitrate=N/A speed=N/A elapsed=0:00:01.54    \nframe=   11 fps=5.3 q=41.0 size=       0KiB time=00:00:00.20 bitrate=   1.9kbits/s speed=0.0969x elapsed=0:00:02.06    \nframe=   29 fps= 11 q=40.0 size=     256KiB time=00:00:00.90 bitrate=2330.6kbits/s speed=0.339x elapsed=0:00:02.65    \nframe=   53 fps= 16 q=40.0 size=     512KiB time=00:00:01.66 bitrate=2516.8kbits/s speed=0.519x elapsed=0:00:03.21    \nframe=   86 fps= 23 q=40.0 size=     768KiB time=00:00:02.70 bitrate=2330.3kbits/s speed=0.718x elapsed=0:00:03.76    \nframe=  121 fps= 28 q=38.0 size=    1280KiB time=00:00:03.96 bitrate=2643.6kbits/s speed=0.922x elapsed=0:00:04.30    \n[mp4 @ 000001daa1f81540] Starting second pass: moving the moov atom to the beginning of the file\n[out#0/mp4 @ 000001daa1f81440] video:1709KiB audio:0KiB subtitle:0KiB other streams:0KiB global headers:0KiB muxing overhead: 0.151908%\nframe=  150 fps= 32 q=-1.0 Lsize=    1712KiB time=00:00:04.93 bitrate=2842.8kbits/s speed=1.06x elapsed=0:00:04.64    \n[libx264 @ 000001daa28347c0] frame I:1     Avg QP:37.64  size: 39690\n[libx264 @ 000001daa28347c0] frame P:40    Avg QP:38.91  size: 17697\n[libx264 @ 000001daa28347c0] frame B:109   Avg QP:42.44  size:  9193\n[libx264 @ 000001daa28347c0] consecutive B-frames:  1.3%  4.0%  4.0% 90.7%\n[libx264 @ 000001daa28347c0] mb I  I16..4: 46.1% 50.9%  3.0%\n[libx264 @ 000001daa28347c0] mb P  I16..4: 21.6%  9.5%  0.3%  P16..4: 36.9%  3.3%  2.2%  0.0%  0.0%    skip:26.2%\n[libx264 @ 000001daa28347c0] mb B  I16..4:  2.1%  1.8%  0.0%  B16..8: 45.9%  3.4%  0.2%  direct: 1.2%  skip:45.3%  L0:51.3% L1:47.5% BI: 1.2%\n[libx264 @ 000001daa28347c0] 8x8 transform intra:35.1% inter:75.8%\n[libx264 @ 000001daa28347c0] direct mvs  spatial:91.7% temporal:8.3%\n[libx264 @ 000001daa28347c0] coded y,uvDC,uvAC intra: 13.5% 6.3% 0.0% inter: 5.5% 0.4% 0.0%\n[libx264 @ 000001daa28347c0] i16 v,h,dc,p: 10% 43%  9% 37%\n[libx264 @ 000001daa28347c0] i8 v,h,dc,ddl,ddr,vr,hd,vl,hu:  4% 16% 26%  6%  8%  5% 15%  6% 14%\n[libx264 @ 000001daa28347c0] i4 v,h,dc,ddl,ddr,vr,hd,vl,hu:  5%  9% 23%  7%  9%  6% 13%  8% 20%\n[libx264 @ 000001daa28347c0] i8c dc,h,v,p: 97%  3%  0%  0%\n[libx264 @ 000001daa28347c0] Weighted P-Frames: Y:10.0% UV:0.0%\n[libx264 @ 000001daa28347c0] ref P L0: 48.0%  7.0% 20.0% 12.5% 11.8%  0.8%\n[libx264 @ 000001daa28347c0] ref B L0: 62.3% 20.9% 12.5%  4.3%\n[libx264 @ 000001daa28347c0] ref B L1: 90.7%  9.3%\n[libx264 @ 000001daa28347c0] kb/s:2799.42\n",
  "seconds": 4.896775722503662,
  "probe_out": {}
}